#!OML:ASF X:\für Bonn\!DataBase\2005_08_12_Daniel\c3d\Daniel.ASF
:FULLY-SPECIFIED
:DEGREES
226
root 1.09149 14.5238 0.880593 168.627 -13.6356 -178.447
lowerback 53.5324 -2.95346 10.2023
upperback 8.95662 -2.90445 1.76746
thorax -10.7267 -3.565 -0.940821
lowerneck 2.96606 -7.16557 -1.83944
upperneck 14.7488 -11.7142 6.03907
head 4.41197 -5.93529 1.74532
rclavicle 1.15295e-014 -4.29375e-014
rhumerus -2.32903 4.95167 -69.1163
rradius 31.3294
rwrist 1.82266
rhand -17.1082 13.6581
rfingers 7.12502
rthumb 9.13096 -16.1243
lclavicle 1.15295e-014 -4.29375e-014
lhumerus -9.74552 17.5828 85.5895
lradius 30.5917
lwrist -17.2329
lhand -13.4301 -6.38728
lfingers 7.12502
lthumb 12.6786 23.2079
rfemur -36.4753 -17.241 13.622
rtibia 83.4887
rfoot -26.4836 16.8226
rtoes -8.27925
lfemur -38.5074 3.53976 -12.2035
ltibia 85.0695
lfoot -34.952 -18.0344
ltoes -6.32503
227
root 1.10384 14.6805 0.873891 169.098 -13.4264 -178.436
lowerback 52.9712 -2.9257 10.0775
upperback 8.86678 -2.88392 1.7245
thorax -10.7825 -3.50851 -0.971126
lowerneck 2.94909 -7.08299 -1.727
upperneck 14.7526 -11.5978 5.98421
head 4.40154 -5.87824 1.71531
rclavicle 1.43125e-014 3.89618e-014
rhumerus -2.83195 4.92555 -69.7512
rradius 31.3711
rwrist 1.73022
rhand -17.2156 13.5941
rfingers 7.12502
rthumb 9.02732 -16.1927
lclavicle 1.43125e-014 3.89618e-014
lhumerus -9.74212 17.0345 85.5272
lradius 30.9991
lwrist -16.8909
lhand -13.3914 -6.46333
lfingers 7.12502
lthumb 12.7159 23.1295
rfemur -35.6179 -16.6622 14.1011
rtibia 81.3454
rfoot -26.87 16.2369
rtoes -8.45281
lfemur -37.6805 3.18031 -12.3203
ltibia 83.1326
lfoot -34.7176 -17.2164
ltoes -6.58066
228
root 1.1173 14.8373 0.865915 169.523 -13.2101 -178.403
lowerback 52.43 -2.89851 9.973
upperback 8.78359 -2.85751 1.69453
thorax -10.8269 -3.45363 -0.997605
lowerneck 2.91136 -7.00988 -1.61949
upperneck 14.7741 -11.4901 5.8894
head 4.39852 -5.82631 1.67231
rclavicle 3.97569e-016 3.33958e-014
rhumerus -3.3499 4.86798 -70.4033
rradius 31.3704
rwrist 1.68981
rhand -17.3565 13.5598
rfingers 7.12502
rthumb 8.89134 -16.2328
lclavicle 3.97569e-016 3.33958e-014
lhumerus -9.74971 16.4474 85.4622
lradius 31.4158
lwrist -16.546
lhand -13.3454 -6.5648
lfingers 7.12502
lthumb 12.7603 23.0253
rfemur -34.7072 -16.0792 14.575
rtibia 79.1788
rfoot -27.2334 15.6875
rtoes -8.64691
lfemur -36.8116 2.79133 -12.3892
ltibia 81.1999
lfoot -34.4264 -16.3839
ltoes -6.81043
229
root 1.1311 14.9911 0.857126 169.992 -12.9781 -178.393
lowerback 51.847 -2.86941 9.8567
upperback 8.69211 -2.83116 1.64467
thorax -10.8742 -3.39421 -1.04268
lowerneck 2.83682 -6.92611 -1.53422
upperneck 14.8393 -11.3808 5.83431
head 4.41844 -5.77217 1.64191
rclavicle -3.61788e-014 6.36111e-014
rhumerus -3.88782 4.77987 -71.0716
rradius 31.3638
rwrist 1.66784
rhand -17.5058 13.5112
rfingers 7.12502
rthumb 8.74729 -16.2876
lclavicle -3.61788e-014 6.36111e-014
lhumerus -9.7808 15.9179 85.3939
lradius 31.852
lwrist -16.2419
lhand -13.2446 -6.72483
lfingers 7.12502
lthumb 12.8574 22.8592
rfemur -33.8638 -15.4817 15.0231
rtibia 77.0231
rfoot -27.5944 15.1113
rtoes -8.80608
lfemur -35.9927 2.38994 -12.4793
ltibia 79.2846
lfoot -34.1212 -15.5226
ltoes -7.20548
230
root 1.14632 15.1392 0.847079 170.434 -12.7593 -178.376
lowerback 51.2554 -2.84539 9.74961
upperback 8.61469 -2.81269 1.60127
thorax -10.8997 -3.3406 -1.08196
lowerneck 2.72276 -6.83954 -1.47306
upperneck 14.9136 -11.2686 5.79492
head 4.44975 -5.71536 1.61809
rclavicle -4.92986e-014 1.31198e-014
rhumerus -4.4257 4.74121 -71.7353
rradius 31.3558
rwrist 1.53258
rhand -17.6264 13.4833
rfingers 7.12502
rthumb 8.63086 -16.3202
lclavicle -4.92986e-014 1.31198e-014
lhumerus -9.80463 15.3439 85.3406
lradius 32.2989
lwrist -15.8888
lhand -13.1244 -6.85624
lfingers 7.12502
lthumb 12.9733 22.7204
rfemur -33.0097 -14.9051 15.4572
rtibia 74.8793
rfoot -27.9214 14.538
rtoes -9.06677
lfemur -35.1927 1.95213 -12.5433
ltibia 77.4133
lfoot -33.7644 -14.6639
ltoes -7.51169
231
root 1.16195 15.2825 0.835372 170.867 -12.5264 -178.361
lowerback 50.6478 -2.82329 9.63876
upperback 8.53581 -2.79934 1.54619
thorax -10.9216 -3.28837 -1.13061
lowerneck 2.69554 -6.74584 -1.37511
upperneck 14.9497 -11.1402 5.72213
head 4.45092 -5.6539 1.58406
rclavicle 1.31198e-014 -1.02573e-013
rhumerus -4.95485 4.64419 -72.4315
rradius 31.3031
rwrist 1.48032
rhand -17.724 13.475
rfingers 7.12502
rthumb 8.53674 -16.3324
lclavicle 1.31198e-014 -1.02573e-013
lhumerus -9.87729 14.756 85.2547
lradius 32.795
lwrist -15.5145
lhand -12.9852 -6.99446
lfingers 7.12502
lthumb 13.1074 22.5736
rfemur -32.1655 -14.3116 15.8751
rtibia 72.7585
rfoot -28.2532 13.9672
rtoes -9.30975
lfemur -34.3982 1.50107 -12.606
ltibia 75.5848
lfoot -33.4098 -13.7474
ltoes -7.98125
232
root 1.17888 15.42 0.822316 171.281 -12.288 -178.328
lowerback 50.0099 -2.79104 9.5209
upperback 8.47985 -2.78586 1.52792
thorax -10.9065 -3.24 -1.13799
lowerneck 2.62806 -6.62954 -1.38258
upperneck 15.0071 -10.9875 5.69561
head 4.47213 -5.58221 1.57897
rclavicle -3.18055e-015 1.59028e-015
rhumerus -5.4531 4.5629 -73.1004
rradius 31.2612
rwrist 1.43374
rhand -17.8543 13.3872
rfingers 7.12502
rthumb 8.41096 -16.4253
lclavicle -3.18055e-015 1.59028e-015
lhumerus -9.91099 14.3179 85.2417
lradius 33.267
lwrist -15.187
lhand -12.7981 -7.14335
lfingers 7.12502
lthumb 13.2878 22.413
rfemur -31.3159 -13.691 16.2944
rtibia 70.6676
rfoot -28.5171 13.4022
rtoes -9.48898
lfemur -33.624 1.03388 -12.6229
ltibia 73.8083
lfoot -33.0419 -12.8576
ltoes -8.40078
233
root 1.19641 15.5522 0.807152 171.685 -12.0432 -178.295
lowerback 49.3618 -2.77009 9.43744
upperback 8.41862 -2.76773 1.4877
thorax -10.8908 -3.18829 -1.18724
lowerneck 2.57991 -6.52819 -1.40059
upperneck 15.0573 -10.8556 5.67524
head 4.48972 -5.52138 1.57762
rclavicle 1.39149e-014 -7.95139e-015
rhumerus -5.95683 4.34037 -73.8013
rradius 31.1568
rwrist 1.42571
rhand -17.9139 13.4213
rfingers 7.12502
rthumb 8.35345 -16.3935
lclavicle 1.39149e-014 -7.95139e-015
lhumerus -9.99746 13.7809 85.2073
lradius 33.7686
lwrist -14.8177
lhand -12.6235 -7.29226
lfingers 7.12502
lthumb 13.4561 22.2531
rfemur -30.4726 -13.0394 16.7089
rtibia 68.6018
rfoot -28.7758 12.7979
rtoes -9.79122
lfemur -32.8741 0.572869 -12.6363
ltibia 72.0951
lfoot -32.7033 -11.916
ltoes -8.8934
234
root 1.21341 15.6776 0.790887 172.079 -11.7934 -178.278
lowerback 48.6894 -2.76466 9.35103
upperback 8.36584 -2.77594 1.4393
thorax -10.8587 -3.14849 -1.23363
lowerneck 2.5712 -6.39007 -1.51909
upperneck 15.1044 -10.6839 5.72202
head 4.50655 -5.44522 1.61566
rclavicle 2.5842e-014 -1.70955e-014
rhumerus -6.48439 4.26296 -74.4845
rradius 31.1053
rwrist 1.31114
rhand -17.9694 13.3625
rfingers 7.12502
rthumb 8.2999 -16.4545
lclavicle 2.5842e-014 -1.70955e-014
lhumerus -10.1196 13.2863 85.1762
lradius 34.313
lwrist -14.3816
lhand -12.4515 -7.43504
lfingers 7.12502
lthumb 13.6219 22.0993
rfemur -29.6435 -12.3475 17.0825
rtibia 66.5902
rfoot -28.93 12.2041
rtoes -9.95346
lfemur -32.1519 0.0651298 -12.6545
ltibia 70.4441
lfoot -32.3356 -10.9857
ltoes -9.20236
235
root 1.23238 15.7976 0.772706 172.435 -11.5437 -178.241
lowerback 48.0284 -2.7634 9.29133
upperback 8.32197 -2.78106 1.39595
thorax -10.8113 -3.11047 -1.28752
lowerneck 2.57882 -6.26101 -1.62635
upperneck 15.1251 -10.5166 5.74825
head 4.51091 -5.37167 1.64698
rclavicle 1.47101e-014 -1.78906e-014
rhumerus -6.98462 4.03067 -75.163
rradius 30.9963
rwrist 1.36998
rhand -17.9678 13.3723
rfingers 7.12502
rthumb 8.30137 -16.4446
lclavicle 1.47101e-014 -1.78906e-014
lhumerus -10.2109 12.8009 85.1554
lradius 34.7636
lwrist -14.0172
lhand -12.3933 -7.64354
lfingers 7.12502
lthumb 13.678 21.887
rfemur -28.8028 -11.6243 17.4673
rtibia 64.627
rfoot -28.9966 11.5824
rtoes -9.88022
lfemur -31.438 -0.414219 -12.6323
ltibia 68.8656
lfoot -31.9841 -10.0748
ltoes -9.42552
236
root 1.25009 15.9096 0.753209 172.784 -11.2899 -178.222
lowerback 46.4928 -2.63139 9.11954
upperback 9.22214 -2.82261 1.50695
thorax -10.85 -3.07591 -1.364
lowerneck 2.59286 -6.1265 -1.76088
upperneck 15.1593 -10.3431 5.76567
head 4.51871 -5.29737 1.68024
rclavicle -1.98785e-015 -6.16232e-014
rhumerus -7.49116 3.74128 -75.8398
rradius 30.8603
rwrist 1.37944
rhand -17.9354 13.3733
rfingers 7.12502
rthumb 8.33266 -16.4423
lclavicle -1.98785e-015 -6.16232e-014
lhumerus -10.3426 12.3818 85.1623
lradius 35.2108
lwrist -13.6956
lhand -12.3052 -7.8225
lfingers 7.12502
lthumb 13.7628 21.7023
rfemur -27.9992 -10.9389 17.8052
rtibia 62.7507
rfoot -28.987 10.9754
rtoes -9.95431
lfemur -30.7516 -0.921018 -12.6132
ltibia 67.3556
lfoot -31.6533 -9.23264
ltoes -9.25216
237
root 1.26867 16.0121 0.731488 173.071 -11.0295 -178.202
lowerback 45.885 -2.65378 9.10056
upperback 9.1475 -2.83704 1.43547
thorax -10.7896 -3.04568 -1.45527
lowerneck 2.57885 -5.98272 -1.88001
upperneck 15.2193 -10.1636 5.80282
head 4.53878 -5.21794 1.71569
rclavicle 1.35174e-014 3.22031e-014
rhumerus -7.96484 3.3817 -76.5196
rradius 30.6813
rwrist 1.47841
rhand -17.8697 13.3197
rfingers 7.12502
rthumb 8.39608 -16.4934
lclavicle 1.35174e-014 3.22031e-014
lhumerus -10.4793 11.9649 85.1424
lradius 35.6472
lwrist -13.3817
lhand -12.2627 -7.98945
lfingers 7.12502
lthumb 13.8039 21.5326
rfemur -27.1709 -10.2477 18.1239
rtibia 60.9552
rfoot -28.9149 10.4032
rtoes -9.852
lfemur -30.0364 -1.43527 -12.5766
ltibia 65.9234
lfoot -31.3575 -8.42346
ltoes -9.0017
238
root 1.28724 16.1071 0.708058 173.331 -10.7728 -178.16
lowerback 45.2822 -2.68521 9.09182
upperback 9.07892 -2.86185 1.37884
thorax -10.7192 -3.02272 -1.53054
lowerneck 2.55092 -5.83918 -1.97112
upperneck 15.2728 -9.9735 5.785
head 4.55452 -5.13354 1.73026
rclavicle -1.43125e-014 3.10104e-014
rhumerus -8.4497 3.09698 -77.1784
rradius 30.5311
rwrist 1.53178
rhand -17.8354 13.2608
rfingers 7.12502
rthumb 8.42922 -16.551
lclavicle -1.43125e-014 3.10104e-014
lhumerus -10.6369 11.5079 85.1177
lradius 36.0671
lwrist -13.0802
lhand -12.2805 -8.09982
lfingers 7.12502
lthumb 13.7867 21.4234
rfemur -26.3625 -9.6086 18.4442
rtibia 59.2458
rfoot -28.7981 9.87895
rtoes -9.70133
lfemur -29.3422 -1.91288 -12.5114
ltibia 64.5636
lfoot -31.0761 -7.64158
ltoes -8.73753
239
root 1.30494 16.1954 0.683533 173.571 -10.5014 -178.139
lowerback 44.6952 -2.71472 9.09225
upperback 9.00715 -2.88064 1.31717
thorax -10.6527 -2.99808 -1.61775
lowerneck 2.45889 -5.69785 -2.08685
upperneck 15.3714 -9.7914 5.77645
head 4.59646 -5.05181 1.74793
rclavicle -1.98785e-015 1.39149e-014
rhumerus -8.88252 2.77126 -77.8118
rradius 30.3048
rwrist 1.61024
rhand -17.7614 13.2224
rfingers 7.12502
rthumb 8.50055 -16.5866
lclavicle -1.98785e-015 1.39149e-014
lhumerus -10.8206 11.0938 85.1131
lradius 36.4892
lwrist -12.8204
lhand -12.3458 -8.26483
lfingers 7.12502
lthumb 13.7238 21.2626
rfemur -25.5816 -8.93738 18.7229
rtibia 57.6242
rfoot -28.6697 9.38194
rtoes -9.45768
lfemur -28.6488 -2.37399 -12.4608
ltibia 63.267
lfoot -30.8663 -6.90901
ltoes -8.51711
240
root 1.32415 16.2779 0.65671 173.743 -10.2271 -178.111
lowerback 44.1805 -2.74922 9.10344
upperback 8.92553 -2.89912 1.24181
thorax -10.6146 -2.97611 -1.72115
lowerneck 2.34915 -5.55295 -2.14614
upperneck 15.5166 -9.61226 5.75437
head 4.65256 -4.96993 1.75108
rclavicle 2.10712e-014 5.96354e-015
rhumerus -9.34769 2.38335 -78.4691
rradius 30.0737
rwrist 1.73314
rhand -17.6889 13.1788
rfingers 7.12502
rthumb 8.5706 -16.6272
lclavicle 2.10712e-014 5.96354e-015
lhumerus -11.0266 10.6786 85.0899
lradius 36.8485
lwrist -12.5968
lhand -12.51 -8.39344
lfingers 7.12502
lthumb 13.5655 21.1446
rfemur -24.7635 -8.28581 19.0007
rtibia 56.0806
rfoot -28.5275 8.8501
rtoes -9.35882
lfemur -27.9089 -2.77555 -12.3998
ltibia 62.025
lfoot -30.6725 -6.20255
ltoes -8.37879
